<svg width="16" height="16" viewBox="0 0 16 16" fill="none" xmlns="http://www.w3.org/2000/svg">
<g id="&#240;&#159;&#166;&#134; icon &#34;arrow down&#34;">
<path id="Vector" d="M8.00078 11.3333C7.83058 11.3324 7.66272 11.2937 7.50935 11.2199C7.35599 11.1461 7.22098 11.039 7.11411 10.9066L4.30745 7.50659C4.14344 7.3019 4.04024 7.05525 4.00959 6.79476C3.97894 6.53427 4.02209 6.27041 4.13411 6.03325C4.22496 5.82714 4.37323 5.65153 4.56119 5.5274C4.74916 5.40327 4.96888 5.33587 5.19411 5.33325L10.8074 5.33325C11.0327 5.33587 11.2524 5.40327 11.4404 5.5274C11.6283 5.65153 11.7766 5.82714 11.8674 6.03325C11.9795 6.27041 12.0226 6.53427 11.992 6.79476C11.9613 7.05525 11.8581 7.3019 11.6941 7.50659L8.88744 10.9066C8.78058 11.039 8.64557 11.1461 8.4922 11.2199C8.33884 11.2937 8.17097 11.3324 8.00078 11.3333Z" fill="black"/>
</g>
</svg>
